<svg width="33" height="32" viewBox="0 0 33 32" fill="none" xmlns="http://www.w3.org/2000/svg">
<path fill-rule="evenodd" clip-rule="evenodd" d="M16.5652 31.1451C25.1657 31.1451 32.1378 24.173 32.1378 15.5726C32.1378 6.97207 25.1657 0 16.5652 0C7.96474 0 0.992676 6.97207 0.992676 15.5726C0.992676 24.173 7.96474 31.1451 16.5652 31.1451ZM20.1893 16.0623C21.2148 15.2711 21.9865 15.74 22.2599 16.2967C22.7483 17.2735 22.2013 17.7521 20.9609 18.5432C19.906 19.2172 18.4702 19.4809 17.5423 19.5688L18.3139 20.3599L21.2246 23.2706C21.6739 23.7199 21.6739 24.4329 21.2246 24.8529L21.0976 25.0092C20.6483 25.4487 19.9353 25.4487 19.4958 25.0092C18.7535 24.2669 17.6888 23.2022 16.5656 22.0985L13.6647 25.0092C13.2251 25.4487 12.5023 25.4487 12.0628 25.0092L11.9261 24.8529C11.4865 24.4329 11.4865 23.7199 11.9261 23.2706C12.6438 22.5433 13.6897 21.5066 14.779 20.4268L14.8465 20.3599L15.6279 19.5786C14.6902 19.4809 13.2349 19.2269 12.1702 18.5432C10.9298 17.7521 10.3828 17.2735 10.8712 16.2967C11.1447 15.74 11.9163 15.2711 12.9419 16.0623C14.3386 17.1758 16.5656 17.1758 16.5656 17.1758C16.5656 17.1758 18.7925 17.1758 20.1893 16.0623ZM19.0074 10.7489C19.0074 9.41072 17.9135 8.31678 16.5656 8.31678C15.2177 8.31678 14.1237 9.41072 14.1237 10.7489C14.1237 12.0967 15.2177 13.1809 16.5656 13.1809C17.9135 13.1809 19.0074 12.0967 19.0074 10.7489ZM21.5079 10.7489C21.5079 13.4837 19.3004 15.6911 16.5656 15.6911C13.8307 15.6911 11.6233 13.4837 11.6233 10.7489C11.6233 9.43807 12.144 8.18098 13.0708 7.25412C13.9977 6.32726 15.2548 5.80656 16.5656 5.80656C17.8763 5.80656 19.1334 6.32726 20.0603 7.25412C20.9872 8.18098 21.5079 9.43807 21.5079 10.7489Z" fill="white"/>
</svg>
