<svg width="30" height="30" viewBox="0 0 36 36" fill="none" xmlns="http://www.w3.org/2000/svg">
<path d="M5.01382 11.6669C5.35305 10.848 5.85025 10.1039 6.47706 9.47706C7.10385 8.85025 7.84797 8.35305 8.66693 8.01382C9.48588 7.6746 10.3636 7.5 11.2501 7.5C12.1365 7.5 13.0142 7.6746 13.8332 8.01382C14.6521 8.35305 15.3963 8.85025 16.0231 9.47706L18.0001 11.4541L19.9771 9.47706C21.2429 8.21118 22.9598 7.50002 24.7501 7.50002C26.5403 7.50002 28.2572 8.21118 29.5231 9.47706C30.7889 10.7429 31.5001 12.4598 31.5001 14.2501C31.5001 16.0403 30.7889 17.7572 29.5231 19.0231L18.0001 30.5461L6.47706 19.0231C5.85025 18.3963 5.35305 17.6521 5.01382 16.8332C4.6746 16.0142 4.5 15.1365 4.5 14.2501C4.5 13.3636 4.6746 12.4859 5.01382 11.6669Z" stroke="#191919" stroke-width="2" stroke-linecap="round" stroke-linejoin="round"/>
</svg>
