<svg width="30" height="30" viewBox="0 0 36 36" fill="none" xmlns="http://www.w3.org/2000/svg">
<path d="M4.5 4.5H7.5L8.1 7.5M8.1 7.5H31.5L25.5 19.5H10.5M8.1 7.5L10.5 19.5M10.5 19.5L7.0605 22.9395C6.1155 23.8845 6.7845 25.5 8.121 25.5H25.5M25.5 25.5C24.7044 25.5 23.9413 25.8161 23.3787 26.3787C22.8161 26.9413 22.5 27.7044 22.5 28.5C22.5 29.2956 22.8161 30.0587 23.3787 30.6213C23.9413 31.1839 24.7044 31.5 25.5 31.5C26.2956 31.5 27.0587 31.1839 27.6213 30.6213C28.1839 30.0587 28.5 29.2956 28.5 28.5C28.5 27.7044 28.1839 26.9413 27.6213 26.3787C27.0587 25.8161 26.2956 25.5 25.5 25.5ZM13.5 28.5C13.5 29.2956 13.1839 30.0587 12.6213 30.6213C12.0587 31.1839 11.2956 31.5 10.5 31.5C9.70435 31.5 8.94129 31.1839 8.37868 30.6213C7.81607 30.0587 7.5 29.2956 7.5 28.5C7.5 27.7044 7.81607 26.9413 8.37868 26.3787C8.94129 25.8161 9.70435 25.5 10.5 25.5C11.2956 25.5 12.0587 25.8161 12.6213 26.3787C13.1839 26.9413 13.5 27.7044 13.5 28.5Z" stroke="#191919" stroke-width="2" stroke-linecap="round" stroke-linejoin="round"/>
</svg>
